<svg width="225" height="40" viewBox="0 0 225 40" fill="none" xmlns="http://www.w3.org/2000/svg">
<path fill-rule="evenodd" clip-rule="evenodd" d="M5.9329 5.79915C9.6688 2.02463 14.5032 0 19.997 0C25.4907 0 30.4352 2.02463 34.2806 5.85397C38.0715 9.62912 40.049 14.553 40.049 19.969C40.049 25.4399 38.0715 30.309 34.3356 33.9745C30.3802 37.8586 25.2705 39.9375 19.997 39.9375C14.7234 39.9375 9.72385 37.8586 5.87848 34.0293C2.03247 30.1993 0 25.2754 0 19.969C0 14.7169 2.08752 9.68395 5.9329 5.79915ZM31.6989 8.42556C28.5673 5.30701 24.5567 3.61132 20.052 3.61132C15.5473 3.61132 11.5912 5.25282 8.51462 8.37074C5.38302 11.5441 3.62517 15.6469 3.62517 19.969C3.62517 24.2363 5.38302 28.3392 8.51462 31.4583C11.6456 34.5769 15.7112 36.2726 20.0514 36.2726C24.3365 36.2726 28.5116 34.5763 31.7533 31.4035C34.8298 28.394 36.4232 24.455 36.4232 19.969C36.4232 15.5379 34.7748 11.4893 31.6989 8.42556ZM19.7932 16.6507C18.6605 14.594 16.728 13.7754 14.4849 13.7754C11.2197 13.7754 8.62093 16.0754 8.62093 19.969C8.62093 23.9282 11.0641 26.1627 14.5962 26.1627C16.8622 26.1627 18.794 24.9238 19.8603 23.0441L17.3722 21.7832C16.8166 23.1103 15.9731 23.5085 14.9069 23.5085C13.063 23.5085 12.2195 21.9823 12.2195 19.9697C12.2195 17.957 12.9301 16.4302 14.9069 16.4302C15.4397 16.4302 16.5059 16.7182 17.128 18.0446L19.7932 16.6507ZM26.0532 13.7754C28.2964 13.7754 30.2283 14.594 31.3616 16.6507L28.6963 18.0446C28.0737 16.7182 27.0075 16.4302 26.4747 16.4302C24.4979 16.4302 23.7866 17.957 23.7866 19.9697C23.7866 21.9823 24.6314 23.5085 26.4747 23.5085C27.5409 23.5085 28.385 23.1103 28.94 21.7832L31.428 23.0441C30.3618 24.9238 28.4299 26.1627 26.164 26.1627C22.6325 26.1627 20.1887 23.9282 20.1887 19.969C20.1887 16.0754 22.7881 13.7754 26.0532 13.7754Z" fill="black"/>
<path d="M54.594 16.89V13.694H51.126V8.118H45.958V13.66H43.374V16.856H45.958V26.104C45.958 30.252 48.168 31.136 51.024 31.136C52.928 31.136 53.982 30.932 54.322 30.864V26.818C54.322 26.818 52.86 26.852 52.486 26.852C51.67 26.852 51.126 26.58 51.126 25.39V16.89H54.594Z" fill="black"/>
<path d="M72.2575 31V18.862C72.2575 15.088 70.2855 12.776 66.6135 12.776C65.5935 12.776 63.4855 13.014 61.5475 15.156V6.996H56.3115V31H61.5475V21.65C61.5475 18.862 62.1935 17.23 64.3695 17.23C66.9535 17.23 67.0555 19.576 67.0555 21.412V31H72.2575Z" fill="black"/>
<path d="M92.6071 23.214V22.976C92.6071 18.046 90.3631 12.708 83.6991 12.708C76.7631 12.708 74.5871 18.012 74.5871 22.466C74.5871 28.212 78.1571 31.646 83.5631 31.646C87.2351 31.646 90.3971 29.878 92.4031 26.512L88.4591 24.472C87.9151 25.934 86.4531 27.634 83.9711 27.634C81.5571 27.634 79.9251 25.798 79.9251 23.418V23.214H92.6071ZM79.9251 19.95C80.1631 18.522 81.1831 16.448 83.6651 16.448C85.8071 16.448 87.1331 17.978 87.2011 19.95H79.9251Z" fill="black"/>
<path d="M94.5793 13.252V31H99.7473V20.732C99.7473 19.236 100.019 17.06 102.365 17.06C103.997 17.06 104.915 17.91 104.915 20.392V31H110.117V20.358C110.117 18.216 110.933 17.026 112.803 17.026C114.673 17.026 115.251 18.386 115.251 20.766V31H120.453V17.978C120.453 14.476 118.277 12.776 115.013 12.776C112.361 12.776 110.729 14.034 109.743 14.85C108.655 13.558 107.159 12.776 104.779 12.776C101.719 12.776 100.223 14.544 99.7813 15.088V13.252H94.5793Z" fill="black"/>
<path d="M140.87 23.214V22.976C140.87 18.046 138.626 12.708 131.962 12.708C125.026 12.708 122.85 18.012 122.85 22.466C122.85 28.212 126.42 31.646 131.826 31.646C135.498 31.646 138.66 29.878 140.666 26.512L136.722 24.472C136.178 25.934 134.716 27.634 132.234 27.634C129.82 27.634 128.188 25.798 128.188 23.418V23.214H140.87ZM128.188 19.95C128.426 18.522 129.446 16.448 131.928 16.448C134.07 16.448 135.396 17.978 135.464 19.95H128.188Z" fill="black"/>
<path d="M151.818 6.996V31H156.646V29.13C157.462 30.252 159.264 31.476 161.814 31.476C167.56 31.476 169.566 26.342 169.566 21.786C169.566 15.972 166.234 12.742 161.984 12.742C158.788 12.742 157.7 14.034 156.918 14.884V6.996H151.818ZM164.466 21.922C164.466 23.486 164.228 27.6 160.692 27.6C157.564 27.6 156.782 24.812 156.782 21.99C156.782 17.876 158.686 16.55 160.896 16.55C164.16 16.55 164.466 20.324 164.466 21.922Z" fill="black"/>
<path d="M187.586 31C187.144 30.354 187.076 29.776 187.076 28.246V17.876C187.076 13.592 182.486 12.776 179.426 12.776C175.55 12.776 171.946 14.374 171.946 18.284H177.182C177.318 17.502 177.726 16.21 179.936 16.21C181.84 16.21 181.942 17.74 181.942 18.352V19.338C178.032 20.086 176.162 20.46 174.938 20.97C172.728 21.888 171.198 23.86 171.198 26.07C171.198 28.62 172.966 31.476 177.012 31.476C179.732 31.476 181.058 30.32 182.452 29.402V31H187.586ZM181.942 22.5V23.282C181.942 25.798 180.378 27.634 178.338 27.634C176.842 27.634 176.332 26.444 176.332 25.832C176.332 25.05 176.774 24.2 178.576 23.622L181.942 22.5Z" fill="black"/>
<path d="M205.096 15.326C202.954 13.694 200.234 12.674 197.208 12.674C192.21 12.674 189.694 15.598 189.694 18.624C189.694 21.344 191.428 23.18 195.644 23.894L197.242 24.166C199.146 24.472 200.064 24.744 200.064 25.73C200.064 26.852 198.636 27.464 196.902 27.464C194.998 27.464 193.026 26.376 191.734 25.016L188.436 28.008C189.728 29.402 192.618 31.442 197.038 31.442C200.744 31.442 205.436 29.674 205.436 25.254C205.436 21.956 202.886 20.392 199.044 19.678L197.786 19.44C195.712 19.032 194.896 18.76 194.896 17.91C194.896 16.924 196.222 16.55 197.344 16.55C199.01 16.55 200.71 17.366 201.866 18.318L205.096 15.326Z" fill="black"/>
<path d="M224.323 23.214V22.976C224.323 18.046 222.079 12.708 215.415 12.708C208.479 12.708 206.303 18.012 206.303 22.466C206.303 28.212 209.873 31.646 215.279 31.646C218.951 31.646 222.113 29.878 224.119 26.512L220.175 24.472C219.631 25.934 218.169 27.634 215.687 27.634C213.273 27.634 211.641 25.798 211.641 23.418V23.214H224.323ZM211.641 19.95C211.879 18.522 212.899 16.448 215.381 16.448C217.523 16.448 218.849 17.978 218.917 19.95H211.641Z" fill="black"/>
</svg>
