<?xml version="1.0" encoding="UTF-8" standalone="no"?>
<svg
   xmlns:dc="http://purl.org/dc/elements/1.1/"
   xmlns:cc="http://creativecommons.org/ns#"
   xmlns:rdf="http://www.w3.org/1999/02/22-rdf-syntax-ns#"
   xmlns:svg="http://www.w3.org/2000/svg"
   xmlns="http://www.w3.org/2000/svg"
   xmlns:sodipodi="http://sodipodi.sourceforge.net/DTD/sodipodi-0.dtd"
   xmlns:inkscape="http://www.inkscape.org/namespaces/inkscape"
   width="40"
   height="36"
   viewBox="0 0 40 36"
   version="1.1"
   id="svg83"
   inkscape:version="1.0beta2 (2b71d25, 2019-12-03)"
   sodipodi:docname="letterheart_sane.svg">
  <defs
     id="defs77" />
  <sodipodi:namedview
     id="base"
     pagecolor="#ffffff"
     bordercolor="#666666"
     borderopacity="1.0"
     inkscape:pageopacity="0.0"
     inkscape:pageshadow="2"
     inkscape:zoom="1.430909"
     inkscape:cx="-106.39669"
     inkscape:cy="-77.442928"
     inkscape:document-units="px"
     inkscape:current-layer="layer2"
     inkscape:document-rotation="0"
     showgrid="false"
     units="px"
     inkscape:window-width="1080"
     inkscape:window-height="801"
     inkscape:window-x="1187"
     inkscape:window-y="1043"
     inkscape:window-maximized="0"
     viewbox-height="36" />
  <metadata
     id="metadata80">
    <rdf:RDF>
      <cc:Work
         rdf:about="">
        <dc:format>image/svg+xml</dc:format>
        <dc:type
           rdf:resource="http://purl.org/dc/dcmitype/StillImage" />
        <dc:title></dc:title>
      </cc:Work>
    </rdf:RDF>
  </metadata>
  <g
     inkscape:groupmode="layer"
     id="layer2"
     inkscape:label="Layer 2">
    <path
       id="path64"
       d="m 20.049101,6.5067717 c 2.54417,-2.75516 5.51582,-4.00811 8.95656,-3.52271 3.55134,0.50101 6.57502,3.0399 7.65001,6.46187 0.82719,2.6331103 0.48381,5.5821603 -0.62388,8.2713803 -1.7228,4.1826 -6.81378,10.12789 -16.03174,14.28439 -9.21796,-4.1565 -14.3089404,-10.10179 -16.0317404,-14.28439 -1.1077,-2.68922 -1.45107,-5.63827 -0.62389,-8.2713803 1.07498,-3.42197 4.09867,-5.96086 7.6500104,-6.46187 3.44085,-0.48542 6.41256,0.76763 8.95678,3.52294 0.005,0.005 0.0488,0.053 0.0488,0.053 4e-5,4e-5 0.0448,-0.0487 0.0491,-0.0532 z m -0.0491,-3.90739 c -5.55699,-4.36149 -14.2666004,-3.22344 -18.2715904,3.33153 -1.32975998,2.17645 -1.82920998,4.7068603 -1.71183998,7.2191203 0.20359,4.35766 2.08461998,8.16677 4.84756998,11.45386 3.7204,4.42619 9.0990204,7.90439 15.0182404,10.49996 0.008,0.004 0.0766,0.0333 0.11762,0.0516 0.036,-0.0151 0.099,-0.0436 0.11837,-0.0521 5.88873,-2.59552 11.2973,-6.07403 15.01749,-10.49944 2.76314,-3.28695 4.64397,-7.09622 4.84757,-11.45387 0.11737,-2.51226 -0.38206,-5.0426803 -1.71185,-7.2191203 -4.00499,-6.55497 -12.71459,-7.69302 -18.27158,-3.33153 z"
       inkscape:connector-curvature="0"
       style="stroke-width:0.000864" />
    <path
       id="path66"
       d="m 19.857928,18.688835 -2.52981,-1.254 c -0.87932,1.28217 -1.51909,2.14992 -3.36708,1.64355 -1.45058,-0.39749 -1.87993,-1.98736 -1.93507,-3.32101 -0.0753,-1.82165 0.56155,-3.92556 2.73728,-3.81305 1.39029,0.0719 1.98267,0.89185 2.29924,1.62896 l 2.7622,-1.41601 C 18.464098,9.5615448 15.275608,8.6787648 12.572848,9.4021348 9.6968878,10.171875 8.2402278,12.817485 8.2912978,15.670665 c 0.0522,2.9165 1.45221,5.43586 4.4595802,6.0934 1.46635,0.32059 3.063,0.24607 4.42087,-0.43475 1.05086,-0.5269 2.21837,-1.54385 2.68618,-2.64049 z m 11.92533,0 -2.5298,-1.254 c -0.87932,1.28217 -1.5191,2.14992 -3.36708,1.64355 -1.45058,-0.39749 -1.87994,-1.98736 -1.93508,-3.32101 -0.0753,-1.82165 0.56155,-3.92556 2.73729,-3.81305 1.39029,0.0719 1.98265,0.89185 2.29923,1.62896 l 2.7622,-1.41601 c -1.36058,-2.5957302 -4.54908,-3.4785102 -7.25183,-2.7551402 -2.87597,0.7697402 -4.33263,3.4153502 -4.28156,6.2685302 0.0522,2.9165 1.45222,5.43586 4.45959,6.0934 1.46634,0.32059 3.06299,0.24607 4.42086,-0.43475 1.05086,-0.5269 2.21838,-1.54385 2.68618,-2.64049 z"
       inkscape:connector-curvature="0"
       style="stroke-width:0.000864" />
  </g>
</svg>
