<svg width="192" height="28" fill="none" xmlns="http://www.w3.org/2000/svg"><circle cx="14" cy="14" r="12.5" fill="#fff" stroke="#000" stroke-width="3"/><path d="M11.934 18.168a3.81 3.81 0 01-1.358-.238 3.246 3.246 0 01-1.078-.714 3.294 3.294 0 01-.728-1.134 4.272 4.272 0 01-.266-1.554c0-.579.098-1.092.294-1.54.196-.457.457-.84.784-1.148a3.425 3.425 0 011.162-.7 3.804 3.804 0 011.372-.252c.43 0 .807.07 1.134.21.336.14.635.317.896.532l-.966 1.33c-.327-.27-.64-.406-.938-.406-.504 0-.9.177-1.19.532-.29.355-.434.835-.434 1.442s.145 1.087.434 1.442c.299.355.672.532 1.12.532.224 0 .439-.047.644-.14.215-.103.415-.224.602-.364l.812 1.344a3.237 3.237 0 01-1.12.644 4.053 4.053 0 01-1.176.182zm6.139 0a3.81 3.81 0 01-1.358-.238 3.246 3.246 0 01-1.078-.714 3.294 3.294 0 01-.728-1.134 4.27 4.27 0 01-.266-1.554c0-.579.098-1.092.294-1.54.196-.457.457-.84.784-1.148a3.425 3.425 0 011.162-.7 3.803 3.803 0 011.372-.252c.429 0 .807.07 1.134.21.336.14.634.317.896.532l-.966 1.33c-.327-.27-.64-.406-.938-.406-.504 0-.901.177-1.19.532-.29.355-.434.835-.434 1.442s.144 1.087.434 1.442c.298.355.672.532 1.12.532.224 0 .438-.047.644-.14.214-.103.415-.224.602-.364l.812 1.344a3.238 3.238 0 01-1.12.644 4.054 4.054 0 01-1.176.182zM36.552 22l-2.976-11.904h3.504l1.152 5.52c.096.592.184 1.176.264 1.752.08.576.168 1.168.264 1.776h.096c.112-.608.216-1.208.312-1.8.112-.592.24-1.168.384-1.728l1.32-5.52h3.048l1.344 5.52c.144.592.272 1.176.384 1.752.112.576.232 1.168.36 1.776h.096c.112-.608.2-1.2.264-1.776.08-.576.176-1.16.288-1.752l1.128-5.52h3.264L48.192 22h-4.128l-1.08-4.752c-.128-.56-.24-1.12-.336-1.68-.096-.56-.2-1.16-.312-1.8h-.096c-.112.64-.216 1.24-.312 1.8-.08.56-.176 1.12-.288 1.68L40.584 22h-4.032zm16.64 4.416v-16.32h2.88l.24 1.176h.097c.464-.416.984-.76 1.56-1.032a4.125 4.125 0 011.824-.432c.72 0 1.368.144 1.944.432a4.142 4.142 0 011.464 1.224c.4.528.704 1.168.912 1.92.224.736.336 1.56.336 2.472 0 1.024-.144 1.936-.432 2.736-.272.784-.648 1.456-1.128 2.016-.464.544-1 .96-1.608 1.248a4.175 4.175 0 01-1.848.432 3.706 3.706 0 01-1.488-.312 4.972 4.972 0 01-1.344-.936l.12 1.896v3.48h-3.528zm5.425-7.008c.608 0 1.128-.272 1.56-.816.432-.56.648-1.456.648-2.688 0-2.144-.688-3.216-2.064-3.216-.688 0-1.368.36-2.04 1.08v4.872c.32.288.64.488.96.6.32.112.632.168.936.168zm19.378 2.88c-.528 0-1.064-.128-1.608-.384-.528-.272-1.024-.664-1.488-1.176h-.096L74.515 22h-2.76V5.176h3.528v4.128l-.096 1.824c.464-.416.96-.736 1.488-.96a4.067 4.067 0 011.656-.36c.72 0 1.368.144 1.944.432a4.142 4.142 0 011.464 1.224c.416.512.728 1.144.936 1.896.224.736.336 1.56.336 2.472 0 1.024-.144 1.936-.432 2.736-.272.8-.648 1.48-1.128 2.04-.464.544-1 .96-1.608 1.248a4.175 4.175 0 01-1.848.432zm-.816-2.88c.608 0 1.128-.272 1.56-.816.432-.56.648-1.456.648-2.688 0-2.144-.688-3.216-2.064-3.216-.704 0-1.384.36-2.04 1.08v4.872c.32.288.64.488.96.6.32.112.632.168.936.168zm11.076 2.88A3.74 3.74 0 0186.767 22a3.13 3.13 0 01-1.104-.744 3.888 3.888 0 01-.72-1.152 4.047 4.047 0 01-.24-1.416c0-1.248.528-2.224 1.584-2.928 1.056-.704 2.76-1.176 5.112-1.416-.032-.528-.192-.944-.48-1.248-.272-.32-.736-.48-1.392-.48-.512 0-1.024.096-1.536.288-.496.192-1.032.456-1.608.792l-1.272-2.328c.768-.464 1.568-.84 2.4-1.128a8.302 8.302 0 012.688-.432c1.536 0 2.704.44 3.504 1.32.816.864 1.224 2.216 1.224 4.056V22h-2.88l-.24-1.224h-.096a7.999 7.999 0 01-1.608 1.104 4.173 4.173 0 01-1.848.408zm1.2-2.736c.4 0 .744-.088 1.032-.264.288-.176.592-.424.912-.744v-2.088c-1.248.176-2.112.432-2.592.768s-.72.736-.72 1.2c0 .384.12.672.36.864.256.176.592.264 1.008.264zm11.961 2.736c-.784 0-1.592-.152-2.424-.456a7.476 7.476 0 01-2.136-1.2l1.584-2.208c.544.416 1.064.728 1.56.936.496.208 1 .312 1.512.312.528 0 .912-.088 1.152-.264.24-.176.36-.424.36-.744a.69.69 0 00-.216-.504 1.747 1.747 0 00-.552-.432 4.264 4.264 0 00-.768-.336 34.705 34.705 0 01-.888-.36 11.256 11.256 0 01-1.104-.504 4.913 4.913 0 01-1.008-.696 3.713 3.713 0 01-.744-.984 2.913 2.913 0 01-.288-1.32c0-.544.104-1.048.312-1.512.224-.464.536-.856.936-1.176.4-.32.88-.568 1.44-.744a5.746 5.746 0 011.872-.288c.912 0 1.712.16 2.4.48a9.158 9.158 0 011.8 1.032l-1.584 2.112a6.238 6.238 0 00-1.272-.744 3.18 3.18 0 00-1.248-.264c-.896 0-1.344.312-1.344.936 0 .192.064.36.192.504.128.128.296.248.504.36.224.112.472.224.744.336.288.096.584.2.888.312.384.144.76.312 1.128.504.384.176.728.4 1.032.672.32.272.576.608.768 1.008.192.384.288.848.288 1.392 0 .544-.104 1.048-.312 1.512-.208.464-.52.872-.936 1.224-.416.336-.928.608-1.536.816-.608.192-1.312.288-2.112.288zm12.464 0a6.8 6.8 0 01-2.376-.408 5.712 5.712 0 01-1.92-1.224 5.723 5.723 0 01-1.272-1.968c-.304-.768-.456-1.648-.456-2.64 0-.96.16-1.824.48-2.592.32-.784.736-1.44 1.248-1.968a5.523 5.523 0 011.8-1.248 5.249 5.249 0 012.088-.432c.848 0 1.584.144 2.208.432.64.288 1.168.688 1.584 1.2.432.512.752 1.12.96 1.824.208.688.312 1.44.312 2.256a8.266 8.266 0 01-.144 1.56h-7.128c.16.864.512 1.504 1.056 1.92.56.4 1.24.6 2.04.6.848 0 1.704-.264 2.568-.792l1.176 2.136a7.773 7.773 0 01-2.04.984c-.736.24-1.464.36-2.184.36zm-2.64-7.536h4.296c0-.672-.152-1.216-.456-1.632-.304-.416-.816-.624-1.536-.624-.56 0-1.056.184-1.488.552-.416.368-.688.936-.816 1.704zm19.123 7.536c-.736 0-1.368-.112-1.896-.336a3.424 3.424 0 01-1.272-.936c-.32-.4-.56-.88-.72-1.44a7.812 7.812 0 01-.216-1.896v-4.824h-1.632V10.24l1.824-.144.408-3.168h2.928v3.168h2.856v2.76h-2.856v4.776c0 .672.136 1.16.408 1.464.288.288.664.432 1.128.432.192 0 .384-.024.576-.072.208-.048.392-.104.552-.168l.552 2.568c-.32.096-.696.192-1.128.288a7.03 7.03 0 01-1.512.144zm4.603-.288V5.176h3.528v4.128l-.168 2.136c.448-.4.968-.768 1.56-1.104.592-.352 1.296-.528 2.112-.528 1.296 0 2.232.424 2.808 1.272.592.848.888 2.024.888 3.528V22h-3.528v-6.936c0-.864-.12-1.456-.36-1.776-.224-.32-.592-.48-1.104-.48-.448 0-.832.104-1.152.312-.32.192-.672.472-1.056.84V22h-3.528zm19.039.288a6.8 6.8 0 01-2.376-.408 5.712 5.712 0 01-1.92-1.224 5.723 5.723 0 01-1.272-1.968c-.304-.768-.456-1.648-.456-2.64 0-.96.16-1.824.48-2.592.32-.784.736-1.44 1.248-1.968a5.523 5.523 0 011.8-1.248 5.249 5.249 0 012.088-.432c.848 0 1.584.144 2.208.432.64.288 1.168.688 1.584 1.2.432.512.752 1.12.96 1.824.208.688.312 1.44.312 2.256a8.266 8.266 0 01-.144 1.56h-7.128c.16.864.512 1.504 1.056 1.92.56.4 1.24.6 2.04.6.848 0 1.704-.264 2.568-.792l1.176 2.136a7.773 7.773 0 01-2.04.984c-.736.24-1.464.36-2.184.36zm-2.64-7.536h4.296c0-.672-.152-1.216-.456-1.632-.304-.416-.816-.624-1.536-.624-.56 0-1.056.184-1.488.552-.416.368-.688.936-.816 1.704zM161.099 22V10.096h2.88l.24 1.536h.096a9.056 9.056 0 011.584-1.272c.56-.368 1.232-.552 2.016-.552.848 0 1.528.176 2.04.528.528.336.944.824 1.248 1.464a10.195 10.195 0 011.656-1.392c.592-.4 1.288-.6 2.088-.6 1.28 0 2.216.432 2.808 1.296.608.848.912 2.016.912 3.504V22h-3.528v-6.936c0-.864-.12-1.456-.36-1.776-.224-.32-.592-.48-1.104-.48-.592 0-1.272.384-2.04 1.152V22h-3.528v-6.936c0-.864-.12-1.456-.36-1.776-.224-.32-.592-.48-1.104-.48-.608 0-1.28.384-2.016 1.152V22h-3.528zm25.906.288a6.8 6.8 0 01-2.376-.408 5.712 5.712 0 01-1.92-1.224 5.723 5.723 0 01-1.272-1.968c-.304-.768-.456-1.648-.456-2.64 0-.96.16-1.824.48-2.592.32-.784.736-1.44 1.248-1.968a5.523 5.523 0 011.8-1.248 5.249 5.249 0 012.088-.432c.848 0 1.584.144 2.208.432.64.288 1.168.688 1.584 1.2.432.512.752 1.12.96 1.824.208.688.312 1.44.312 2.256a8.266 8.266 0 01-.144 1.56h-7.128c.16.864.512 1.504 1.056 1.92.56.4 1.24.6 2.04.6.848 0 1.704-.264 2.568-.792l1.176 2.136a7.773 7.773 0 01-2.04.984c-.736.24-1.464.36-2.184.36zm-2.64-7.536h4.296c0-.672-.152-1.216-.456-1.632-.304-.416-.816-.624-1.536-.624-.56 0-1.056.184-1.488.552-.416.368-.688.936-.816 1.704z" fill="#000"/></svg>